REM DIRINDEX 1\2,1\4,1\3\5,1\3\6,1\3\7
REM DIRNAME cjc083,folder01,folder02,folder03,folder04,folder05,folder06
TITLE ""
FILE "CD1Track03.mp3" MP3
  TRACK 01 AUDIO
    TITLE "0:"
    INDEX 01 00:00:00
  TRACK 02 AUDIO
    TITLE "5:cjc083_0020"
    INDEX 01 00:00:29
  TRACK 03 AUDIO
    TITLE "0:"
    INDEX 01 00:01:52
  TRACK 04 AUDIO
    TITLE "6:cjc083_0021"
    INDEX 01 00:02:22
  TRACK 05 AUDIO
    TITLE "0:"
    INDEX 01 00:04:05
  TRACK 06 AUDIO
    TITLE "5:cjc083_0022"
    INDEX 01 00:04:44
  TRACK 07 AUDIO
    TITLE "0:"
    INDEX 01 00:05:46
  TRACK 08 AUDIO
    TITLE "6:cjc083_0023"
    INDEX 01 00:06:18
  TRACK 09 AUDIO
    TITLE "0:"
    INDEX 01 00:08:01
  TRACK 10 AUDIO
    TITLE "5:cjc083_0024"
    INDEX 01 00:08:44
  TRACK 11 AUDIO
    TITLE "0:"
    INDEX 01 00:09:49
  TRACK 12 AUDIO
    TITLE "6:cjc083_0025"
    INDEX 01 00:10:18
  TRACK 13 AUDIO
    TITLE "0:"
    INDEX 01 00:11:48
  TRACK 14 AUDIO
    TITLE "5:cjc083_0026"
    INDEX 01 00:12:12
  TRACK 15 AUDIO
    TITLE "0:"
    INDEX 01 00:13:41
  TRACK 16 AUDIO
    TITLE "6:cjc083_0027"
    INDEX 01 00:14:11
  TRACK 17 AUDIO
    TITLE "0:"
    INDEX 01 00:15:38
  TRACK 18 AUDIO
    TITLE "5:cjc083_0028"
    INDEX 01 00:16:00
  TRACK 19 AUDIO
    TITLE "0:"
    INDEX 01 00:17:16
  TRACK 20 AUDIO
    TITLE "6:cjc083_0029"
    INDEX 01 00:17:57
  TRACK 21 AUDIO
    TITLE "0:"
    INDEX 01 00:19:30
  TRACK 22 AUDIO
    TITLE "5:cjc083_0030"
    INDEX 01 00:19:69
  TRACK 23 AUDIO
    TITLE "0:"
    INDEX 01 00:21:37
  TRACK 24 AUDIO
    TITLE "6:cjc083_0031"
    INDEX 01 00:22:03
  TRACK 25 AUDIO
    TITLE "0:"
    INDEX 01 00:23:69
  TRACK 26 AUDIO
    TITLE "5:cjc083_0032"
    INDEX 01 00:24:35
  TRACK 27 AUDIO
    TITLE "0:"
    INDEX 01 00:25:48
  TRACK 28 AUDIO
    TITLE "6:cjc083_0033"
    INDEX 01 00:26:17
  TRACK 29 AUDIO
    TITLE "0:"
    INDEX 01 00:27:16
  TRACK 30 AUDIO
    TITLE "5:cjc083_0034"
    INDEX 01 00:27:57
  TRACK 31 AUDIO
    TITLE "0:"
    INDEX 01 00:29:25
  TRACK 32 AUDIO
    TITLE "6:cjc083_0035"
    INDEX 01 00:29:72
  TRACK 33 AUDIO
    TITLE "0:"
    INDEX 01 00:31:43
  TRACK 34 AUDIO
    TITLE "5:cjc083_0036"
    INDEX 01 00:32:09
  TRACK 35 AUDIO
    TITLE "0:"
    INDEX 01 00:33:64
  TRACK 36 AUDIO
    TITLE "6:cjc083_0037"
    INDEX 01 00:34:32
  TRACK 37 AUDIO
    TITLE "0:"
    INDEX 01 00:36:46
  TRACK 38 AUDIO
    TITLE "5:cjc083_0038"
    INDEX 01 00:37:12
  TRACK 39 AUDIO
    TITLE "0:"
    INDEX 01 00:38:22
  TRACK 40 AUDIO
    TITLE "6:cjc083_0039"
    INDEX 01 00:38:73
  TRACK 41 AUDIO
    TITLE "0:"
    INDEX 01 00:40:19
  TRACK 42 AUDIO
    TITLE "5:cjc083_0040"
    INDEX 01 00:40:58
  TRACK 43 AUDIO
    TITLE "0:"
    INDEX 01 00:41:67
  TRACK 44 AUDIO
    TITLE "6:cjc083_0041"
    INDEX 01 00:42:37
  TRACK 45 AUDIO
    TITLE "0:"
    INDEX 01 00:43:66
  TRACK 46 AUDIO
    TITLE "5:cjc083_0042"
    INDEX 01 00:44:32
  TRACK 47 AUDIO
    TITLE "0:"
    INDEX 01 00:45:67
  TRACK 48 AUDIO
    TITLE "6:cjc083_0043"
    INDEX 01 00:46:33
  TRACK 49 AUDIO
    TITLE "0:"
    INDEX 01 00:48:34
  TRACK 50 AUDIO
    TITLE "5:cjc083_0044"
    INDEX 01 00:48:73
  TRACK 51 AUDIO
    TITLE "0:"
    INDEX 01 00:50:09
  TRACK 52 AUDIO
    TITLE "6:cjc083_0045"
    INDEX 01 00:50:60
  TRACK 53 AUDIO
    TITLE "0:"
    INDEX 01 00:53:15
  TRACK 54 AUDIO
    TITLE "5:cjc083_0046"
    INDEX 01 00:53:58
  TRACK 55 AUDIO
    TITLE "0:"
    INDEX 01 00:55:14
  TRACK 56 AUDIO
    TITLE "6:cjc083_0047"
    INDEX 01 00:55:59
  TRACK 57 AUDIO
    TITLE "0:"
    INDEX 01 00:57:33
  TRACK 58 AUDIO
    TITLE "5:cjc083_0048"
    INDEX 01 00:58:05
  TRACK 59 AUDIO
    TITLE "0:"
    INDEX 01 00:59:30
  TRACK 60 AUDIO
    TITLE "6:cjc083_0049"
    INDEX 01 01:00:04
  TRACK 61 AUDIO
    TITLE "0:"
    INDEX 01 01:01:58
  TRACK 62 AUDIO
    TITLE "7:cjc083_0050"
    INDEX 01 01:03:16
  TRACK 63 AUDIO
    TITLE "0:"
    INDEX 01 01:14:16
